# xmcd
#
# Track frame offsets: 
#        150
#        15485
#        34127
#        49215
#        64262
#        74850
#        88112
#        100830
#        117047
#        132125
#        146797
#        160420
#        174440
#        189447
#
# Disc length: 2694 seconds
#
# Revision: 3
# Processed by: cddbd v1.5.1PL0 Copyright (c) Steve Scherf et al.
# Submitted via: ExactAudioCopy v0.90b4
#
DISCID=c80a840e
DTITLE=Ricky Van Shelton - Ultimately Fine
DYEAR=1900
DGENRE=Country
TTITLE0=Crime Of Passion
TTITLE1=I Still Love You
TTITLE2=Oh Heart Of Mine
TTITLE3=Living Proof
TTITLE4=Baby, I'm Ready
TTITLE5=The Picture
TTITLE6=Call Me Up
TTITLE7=Life's Little Ups And Downs
TTITLE8=Crazy Over You
TTITLE9=He's Got You
TTITLE10=You Would Do The Same For Me
TTITLE11=Ultimately Fine
TTITLE12=After The Lights Go Out
TTITLE13=Oh, Pretty Woman
EXTD=
EXTT0=
EXTT1=
EXTT2=
EXTT3=
EXTT4=
EXTT5=
EXTT6=
EXTT7=
EXTT8=
EXTT9=
EXTT10=
EXTT11=
EXTT12=
EXTT13=
PLAYORDER=
